<svg xmlns="http://www.w3.org/2000/svg" viewBox="0 0 24 24">
  <path d="M12,0 C5.38330435,0 0,5.38330435 0,12 C0,18.6166957 5.38330435,24 12,24 C18.6166957,24 24,18.6166957 24,12 C24,5.38330435 18.6166957,0 12,0 Z M12.9375652,18.2269565 C12.9375652,18.3396522 12.8624348,18.4137391 12.7507826,18.4137391 L11.3285217,18.4137391 C11.2153043,18.4137391 11.1412174,18.3391304 11.1412174,18.2269565 L11.1412174,16.617913 C11.1412174,16.5057391 11.2158261,16.4311304 11.3285217,16.4311304 L12.7507826,16.4311304 C12.8629565,16.4311304 12.9375652,16.5062609 12.9375652,16.617913 L12.9375652,18.2269565 Z M14.5836522,11.0963478 L13.329913,12.818087 C12.9558261,13.3231304 12.8431304,13.5850435 12.8431304,14.2210435 L12.8431304,14.8194783 C12.8431304,14.9316522 12.7685217,15.0062609 12.6563478,15.0062609 L11.4213913,15.0062609 C11.3092174,15.0083478 11.2346087,14.9332174 11.2346087,14.8210435 L11.2346087,14.054087 C11.2346087,13.3048696 11.4026087,12.9125217 11.7954783,12.3693913 L13.0497391,10.6476522 C13.704,9.74973913 13.9283478,9.31930435 13.9283478,8.68278261 C13.9283478,7.61634783 13.1801739,6.94278261 12.1132174,6.94278261 C11.0655652,6.94278261 10.392,7.57878261 10.1676522,8.72034783 C10.1488696,8.83252174 10.0742609,8.88886957 9.96156522,8.87008696 L8.78295652,8.664 C8.67026087,8.64521739 8.61443478,8.5706087 8.63269565,8.45791304 C8.91391304,6.66156522 10.2052174,5.48243478 12.1513043,5.48243478 C14.1714783,5.48243478 15.5373913,6.81078261 15.5373913,8.66347826 C15.5373913,9.56191304 15.2201739,10.2166957 14.5836522,11.0963478 Z"/>
</svg>
