<svg xmlns="http://www.w3.org/2000/svg" width="20" height="20" fill="none" viewBox="0 0 20 20">
    <path d="M7.605 13.976c.186.186.418.28.65.28a.918.918 0 0 0 .652-.28l6.163-6.162a.927.927 0 0 0 0-1.326.927.927 0 0 0-1.326 0L8.256 12 5.767 9.51a.927.927 0 0 0-1.325 0 .927.927 0 0 0 0 1.326l3.163 3.14z"/>
    <path d="M10 20c5.512 0 10-4.488 10-10S15.512 0 10 0 0 4.488 0 10s4.488 10 10 10zm0-18.14c4.488 0 8.14 3.652 8.14 8.14s-3.652 8.14-8.14 8.14S1.86 14.488 1.86 10 5.512 1.86 10 1.86z"/>
</svg>
