
<svg xmlns="http://www.w3.org/2000/svg" fill="none" viewBox="0 0 49 56">
    <path d="M27.978 56a28 28 0 1 1 19.81-47.81 1.774 1.774 0 1 1-2.51 2.51 24.47 24.47 0 1 0 0 34.6 1.775 1.775 0 1 1 2.51 2.51A27.94 27.94 0 0 1 27.978 56zm0-7.41a1.795 1.795 0 1 1 0-3.59 17 17 0 1 0-17-17 1.78 1.78 0 0 1-3.55 0 20.59 20.59 0 1 1 20.55 20.59zm-.58-8.92A11.671 11.671 0 1 1 39.058 28a11.68 11.68 0 0 1-11.66 11.67zm4.25-12.73h-3.19v-3.19a1.071 1.071 0 0 0-1.857-.823 1.071 1.071 0 0 0-.273.823v3.19h-3.19a1.06 1.06 0 0 0 0 2.12h3.19v3.19a1.07 1.07 0 1 0 2.13 0v-3.19h3.19a1.05 1.05 0 0 0 1.06-1.06 1.07 1.07 0 0 0-1.06-1.06z"/>
</svg>
