<svg xmlns="http://www.w3.org/2000/svg" fill="none" viewBox="0 0 16 16">
    <path d="M11.507 6.103a3.783 3.783 0 0 0-.512-4.952A4.23 4.23 0 0 0 8.08 0c-.81 0-1.602.228-2.287.661a3.969 3.969 0 0 0-1.515 1.764 3.74 3.74 0 0 0-.235 2.267 3.863 3.863 0 0 0 1.124 2.005 4.18 4.18 0 0 0 2.11 1.074 4.31 4.31 0 0 0 2.38-.224 4.08 4.08 0 0 0 1.85-1.444zm-7.305 2.34a.633.633 0 0 1 .43-.055.606.606 0 0 1 .353.227c.345.465.795.84 1.314 1.096a3.84 3.84 0 0 0 3.392 0c.52-.255.97-.63 1.314-1.096a.607.607 0 0 1 .365-.227.628.628 0 0 1 .428.057C14.425 9.789 16 12.405 16 15.423a.562.562 0 0 1-.178.404.621.621 0 0 1-.428.173H.606a.622.622 0 0 1-.428-.169.565.565 0 0 1-.178-.404c0-3.023 1.576-5.638 4.202-6.984z"/>
</svg>
